%TF.GenerationSoftware,KiCad,Pcbnew,8.0.4*%
%TF.CreationDate,2024-08-09T15:13:58+02:00*%
%TF.ProjectId,acorn-userport-microsd-adapter,61636f72-6e2d-4757-9365-72706f72742d,rev?*%
%TF.SameCoordinates,Original*%
%TF.FileFunction,Drillmap*%
%TF.FilePolarity,Positive*%
%FSLAX45Y45*%
G04 Gerber Fmt 4.5, Leading zero omitted, Abs format (unit mm)*
G04 Created by KiCad (PCBNEW 8.0.4) date 2024-08-09 15:13:58*
%MOMM*%
%LPD*%
G01*
G04 APERTURE LIST*
%ADD10C,0.050000*%
%ADD11C,0.200000*%
G04 APERTURE END LIST*
D10*
X15392400Y-4851400D02*
X12446000Y-4851400D01*
X12446000Y-4851400D02*
X12446000Y-7594600D01*
X15392400Y-7594600D02*
X12446000Y-7594600D01*
X15392400Y-7594600D02*
X15392400Y-4851400D01*
D11*
X12704277Y-7908584D02*
X12704277Y-7708584D01*
X12704277Y-7708584D02*
X12751896Y-7708584D01*
X12751896Y-7708584D02*
X12780467Y-7718108D01*
X12780467Y-7718108D02*
X12799515Y-7737155D01*
X12799515Y-7737155D02*
X12809039Y-7756203D01*
X12809039Y-7756203D02*
X12818562Y-7794298D01*
X12818562Y-7794298D02*
X12818562Y-7822869D01*
X12818562Y-7822869D02*
X12809039Y-7860965D01*
X12809039Y-7860965D02*
X12799515Y-7880012D01*
X12799515Y-7880012D02*
X12780467Y-7899060D01*
X12780467Y-7899060D02*
X12751896Y-7908584D01*
X12751896Y-7908584D02*
X12704277Y-7908584D01*
X12904277Y-7908584D02*
X12904277Y-7775250D01*
X12904277Y-7813346D02*
X12913801Y-7794298D01*
X12913801Y-7794298D02*
X12923324Y-7784774D01*
X12923324Y-7784774D02*
X12942372Y-7775250D01*
X12942372Y-7775250D02*
X12961420Y-7775250D01*
X13028086Y-7908584D02*
X13028086Y-7775250D01*
X13028086Y-7708584D02*
X13018562Y-7718108D01*
X13018562Y-7718108D02*
X13028086Y-7727631D01*
X13028086Y-7727631D02*
X13037610Y-7718108D01*
X13037610Y-7718108D02*
X13028086Y-7708584D01*
X13028086Y-7708584D02*
X13028086Y-7727631D01*
X13151896Y-7908584D02*
X13132848Y-7899060D01*
X13132848Y-7899060D02*
X13123324Y-7880012D01*
X13123324Y-7880012D02*
X13123324Y-7708584D01*
X13256658Y-7908584D02*
X13237610Y-7899060D01*
X13237610Y-7899060D02*
X13228086Y-7880012D01*
X13228086Y-7880012D02*
X13228086Y-7708584D01*
X13485229Y-7908584D02*
X13485229Y-7708584D01*
X13485229Y-7708584D02*
X13551896Y-7851441D01*
X13551896Y-7851441D02*
X13618562Y-7708584D01*
X13618562Y-7708584D02*
X13618562Y-7908584D01*
X13799515Y-7908584D02*
X13799515Y-7803822D01*
X13799515Y-7803822D02*
X13789991Y-7784774D01*
X13789991Y-7784774D02*
X13770943Y-7775250D01*
X13770943Y-7775250D02*
X13732848Y-7775250D01*
X13732848Y-7775250D02*
X13713801Y-7784774D01*
X13799515Y-7899060D02*
X13780467Y-7908584D01*
X13780467Y-7908584D02*
X13732848Y-7908584D01*
X13732848Y-7908584D02*
X13713801Y-7899060D01*
X13713801Y-7899060D02*
X13704277Y-7880012D01*
X13704277Y-7880012D02*
X13704277Y-7860965D01*
X13704277Y-7860965D02*
X13713801Y-7841917D01*
X13713801Y-7841917D02*
X13732848Y-7832393D01*
X13732848Y-7832393D02*
X13780467Y-7832393D01*
X13780467Y-7832393D02*
X13799515Y-7822869D01*
X13894753Y-7775250D02*
X13894753Y-7975250D01*
X13894753Y-7784774D02*
X13913801Y-7775250D01*
X13913801Y-7775250D02*
X13951896Y-7775250D01*
X13951896Y-7775250D02*
X13970943Y-7784774D01*
X13970943Y-7784774D02*
X13980467Y-7794298D01*
X13980467Y-7794298D02*
X13989991Y-7813346D01*
X13989991Y-7813346D02*
X13989991Y-7870488D01*
X13989991Y-7870488D02*
X13980467Y-7889536D01*
X13980467Y-7889536D02*
X13970943Y-7899060D01*
X13970943Y-7899060D02*
X13951896Y-7908584D01*
X13951896Y-7908584D02*
X13913801Y-7908584D01*
X13913801Y-7908584D02*
X13894753Y-7899060D01*
X14075705Y-7889536D02*
X14085229Y-7899060D01*
X14085229Y-7899060D02*
X14075705Y-7908584D01*
X14075705Y-7908584D02*
X14066182Y-7899060D01*
X14066182Y-7899060D02*
X14075705Y-7889536D01*
X14075705Y-7889536D02*
X14075705Y-7908584D01*
X14075705Y-7784774D02*
X14085229Y-7794298D01*
X14085229Y-7794298D02*
X14075705Y-7803822D01*
X14075705Y-7803822D02*
X14066182Y-7794298D01*
X14066182Y-7794298D02*
X14075705Y-7784774D01*
X14075705Y-7784774D02*
X14075705Y-7803822D01*
M02*
