G04 #@! TF.GenerationSoftware,KiCad,Pcbnew,8.0.4*
G04 #@! TF.CreationDate,2024-08-09T15:13:23+02:00*
G04 #@! TF.ProjectId,acorn-userport-microsd-adapter,61636f72-6e2d-4757-9365-72706f72742d,rev?*
G04 #@! TF.SameCoordinates,Original*
G04 #@! TF.FileFunction,Copper,L2,Bot*
G04 #@! TF.FilePolarity,Positive*
%FSLAX46Y46*%
G04 Gerber Fmt 4.6, Leading zero omitted, Abs format (unit mm)*
G04 Created by KiCad (PCBNEW 8.0.4) date 2024-08-09 15:13:23*
%MOMM*%
%LPD*%
G01*
G04 APERTURE LIST*
G04 #@! TA.AperFunction,ComponentPad*
%ADD10R,1.700000X1.700000*%
G04 #@! TD*
G04 #@! TA.AperFunction,ComponentPad*
%ADD11O,1.700000X1.700000*%
G04 #@! TD*
G04 #@! TA.AperFunction,Conductor*
%ADD12C,0.200000*%
G04 #@! TD*
G04 APERTURE END LIST*
D10*
X152400000Y-50800000D03*
D11*
X149860000Y-50800000D03*
X152400000Y-53340000D03*
X149860000Y-53340000D03*
X152400000Y-55880000D03*
X149860000Y-55880000D03*
X152400000Y-58420000D03*
X149860000Y-58420000D03*
X152400000Y-60960000D03*
X149860000Y-60960000D03*
X152400000Y-63500000D03*
X149860000Y-63500000D03*
X152400000Y-66040000D03*
X149860000Y-66040000D03*
X152400000Y-68580000D03*
X149860000Y-68580000D03*
X152400000Y-71120000D03*
X149860000Y-71120000D03*
X152400000Y-73660000D03*
X149860000Y-73660000D03*
D10*
X144780000Y-55880000D03*
D11*
X144780000Y-58420000D03*
X144780000Y-60960000D03*
X144780000Y-63500000D03*
X144780000Y-66040000D03*
X144780000Y-68580000D03*
D10*
X144765000Y-73660000D03*
D11*
X142225000Y-73660000D03*
X139685000Y-73660000D03*
X137145000Y-73660000D03*
X134605000Y-73660000D03*
X132065000Y-73660000D03*
X129525000Y-73660000D03*
X126985000Y-73660000D03*
D12*
X144780000Y-58420000D02*
X149860000Y-58420000D01*
X146170000Y-64650000D02*
X144780000Y-66040000D01*
X150336346Y-64650000D02*
X146170000Y-64650000D01*
X151250000Y-54490000D02*
X151250000Y-63736346D01*
X151250000Y-63736346D02*
X150336346Y-64650000D01*
X152400000Y-53340000D02*
X151250000Y-54490000D01*
X152400000Y-50800000D02*
X152400000Y-53340000D01*
X134605000Y-66040000D02*
X144780000Y-66040000D01*
X126985000Y-73660000D02*
X134605000Y-66040000D01*
G04 #@! TA.AperFunction,Conductor*
G36*
X153382691Y-49033407D02*
G01*
X153418655Y-49082907D01*
X153423500Y-49113500D01*
X153423500Y-49352792D01*
X153404593Y-49410983D01*
X153355093Y-49446947D01*
X153313919Y-49451225D01*
X153306307Y-49450406D01*
X153297873Y-49449500D01*
X153297871Y-49449500D01*
X151502133Y-49449500D01*
X151502129Y-49449500D01*
X151502128Y-49449501D01*
X151494949Y-49450272D01*
X151442519Y-49455908D01*
X151442514Y-49455909D01*
X151307670Y-49506202D01*
X151192458Y-49592450D01*
X151192450Y-49592458D01*
X151106202Y-49707670D01*
X151055910Y-49842511D01*
X151055906Y-49842528D01*
X151054389Y-49856641D01*
X151029367Y-49912476D01*
X150976305Y-49942940D01*
X150915471Y-49936397D01*
X150885956Y-49916060D01*
X150731401Y-49761505D01*
X150731397Y-49761502D01*
X150731396Y-49761501D01*
X150624007Y-49686307D01*
X150537830Y-49625965D01*
X150323663Y-49526097D01*
X150095408Y-49464937D01*
X150095407Y-49464936D01*
X150095400Y-49464935D01*
X149860004Y-49444341D01*
X149859996Y-49444341D01*
X149624599Y-49464935D01*
X149396332Y-49526098D01*
X149182181Y-49625959D01*
X149182173Y-49625963D01*
X148988603Y-49761501D01*
X148821501Y-49928603D01*
X148685963Y-50122173D01*
X148685959Y-50122181D01*
X148586098Y-50336332D01*
X148524935Y-50564599D01*
X148504341Y-50799995D01*
X148504341Y-50800004D01*
X148524935Y-51035400D01*
X148586097Y-51263662D01*
X148685964Y-51477828D01*
X148817536Y-51665734D01*
X148821505Y-51671401D01*
X148988599Y-51838495D01*
X149182170Y-51974035D01*
X149195552Y-51980275D01*
X149240300Y-52022003D01*
X149251975Y-52082064D01*
X149226117Y-52137517D01*
X149195554Y-52159724D01*
X149182173Y-52165963D01*
X148988603Y-52301501D01*
X148821501Y-52468603D01*
X148685963Y-52662173D01*
X148685959Y-52662181D01*
X148586098Y-52876332D01*
X148524935Y-53104599D01*
X148504341Y-53339995D01*
X148504341Y-53340004D01*
X148524935Y-53575400D01*
X148524936Y-53575407D01*
X148524937Y-53575408D01*
X148586097Y-53803663D01*
X148685965Y-54017830D01*
X148821505Y-54211401D01*
X148988599Y-54378495D01*
X148988602Y-54378497D01*
X148988603Y-54378498D01*
X148995184Y-54383106D01*
X149182170Y-54514035D01*
X149195552Y-54520275D01*
X149240300Y-54562003D01*
X149251975Y-54622064D01*
X149226117Y-54677517D01*
X149195554Y-54699724D01*
X149182173Y-54705963D01*
X148988603Y-54841501D01*
X148821501Y-55008603D01*
X148685963Y-55202173D01*
X148685959Y-55202181D01*
X148586098Y-55416332D01*
X148524935Y-55644599D01*
X148504341Y-55879995D01*
X148504341Y-55880004D01*
X148524935Y-56115400D01*
X148524936Y-56115407D01*
X148524937Y-56115408D01*
X148586097Y-56343663D01*
X148685965Y-56557830D01*
X148821505Y-56751401D01*
X148988599Y-56918495D01*
X148988602Y-56918497D01*
X148988603Y-56918498D01*
X149031468Y-56948512D01*
X149182170Y-57054035D01*
X149194707Y-57059881D01*
X149239455Y-57101609D01*
X149251130Y-57161671D01*
X149225272Y-57217124D01*
X149197036Y-57238207D01*
X148051817Y-57809101D01*
X148007649Y-57819500D01*
X146632349Y-57819500D01*
X146588181Y-57809101D01*
X146453938Y-57742181D01*
X145756208Y-57394362D01*
X145712565Y-57351480D01*
X145702462Y-57291134D01*
X145729760Y-57236376D01*
X145765780Y-57213002D01*
X145872092Y-57173351D01*
X145987184Y-57087192D01*
X145987192Y-57087184D01*
X146073352Y-56972090D01*
X146073353Y-56972088D01*
X146123596Y-56837381D01*
X146123598Y-56837370D01*
X146130000Y-56777824D01*
X146130000Y-56130001D01*
X146129999Y-56130000D01*
X145213012Y-56130000D01*
X145245925Y-56072993D01*
X145280000Y-55945826D01*
X145280000Y-55814174D01*
X145245925Y-55687007D01*
X145213012Y-55630000D01*
X146129999Y-55630000D01*
X146130000Y-55629999D01*
X146130000Y-54982175D01*
X146123598Y-54922629D01*
X146123596Y-54922618D01*
X146073353Y-54787911D01*
X146073352Y-54787909D01*
X145987192Y-54672815D01*
X145987184Y-54672807D01*
X145872090Y-54586647D01*
X145872088Y-54586646D01*
X145737381Y-54536403D01*
X145737370Y-54536401D01*
X145677824Y-54530000D01*
X145030001Y-54530000D01*
X145030000Y-54530001D01*
X145030000Y-55446988D01*
X144972993Y-55414075D01*
X144845826Y-55380000D01*
X144714174Y-55380000D01*
X144587007Y-55414075D01*
X144530000Y-55446988D01*
X144530000Y-54530001D01*
X144529999Y-54530000D01*
X143882176Y-54530000D01*
X143822629Y-54536401D01*
X143822618Y-54536403D01*
X143687911Y-54586646D01*
X143687909Y-54586647D01*
X143572815Y-54672807D01*
X143572807Y-54672815D01*
X143486647Y-54787909D01*
X143486646Y-54787911D01*
X143436403Y-54922618D01*
X143436401Y-54922629D01*
X143430000Y-54982175D01*
X143430000Y-55629999D01*
X143430001Y-55630000D01*
X144346988Y-55630000D01*
X144314075Y-55687007D01*
X144280000Y-55814174D01*
X144280000Y-55945826D01*
X144314075Y-56072993D01*
X144346988Y-56130000D01*
X143430001Y-56130000D01*
X143430000Y-56130001D01*
X143430000Y-56777824D01*
X143429999Y-56777824D01*
X143436401Y-56837370D01*
X143436403Y-56837381D01*
X143486646Y-56972088D01*
X143486647Y-56972090D01*
X143572807Y-57087184D01*
X143572815Y-57087192D01*
X143687909Y-57173352D01*
X143687911Y-57173353D01*
X143822618Y-57223596D01*
X143822630Y-57223598D01*
X143837090Y-57225153D01*
X143892927Y-57250171D01*
X143923395Y-57303231D01*
X143916856Y-57364066D01*
X143896514Y-57393589D01*
X143741505Y-57548598D01*
X143741502Y-57548602D01*
X143605963Y-57742173D01*
X143605959Y-57742181D01*
X143506098Y-57956332D01*
X143444935Y-58184599D01*
X143424341Y-58419995D01*
X143424341Y-58420004D01*
X143444935Y-58655400D01*
X143444936Y-58655407D01*
X143444937Y-58655408D01*
X143506097Y-58883663D01*
X143605965Y-59097830D01*
X143741505Y-59291401D01*
X143908599Y-59458495D01*
X143908602Y-59458497D01*
X143908603Y-59458498D01*
X143951468Y-59488512D01*
X144102170Y-59594035D01*
X144115552Y-59600275D01*
X144160300Y-59642003D01*
X144171975Y-59702064D01*
X144146117Y-59757517D01*
X144115554Y-59779724D01*
X144102173Y-59785963D01*
X143908603Y-59921501D01*
X143741501Y-60088603D01*
X143605963Y-60282173D01*
X143605959Y-60282181D01*
X143506098Y-60496332D01*
X143444935Y-60724599D01*
X143424341Y-60959995D01*
X143424341Y-60960004D01*
X143444935Y-61195400D01*
X143444936Y-61195407D01*
X143444937Y-61195408D01*
X143506097Y-61423663D01*
X143605965Y-61637830D01*
X143741505Y-61831401D01*
X143908599Y-61998495D01*
X143908602Y-61998497D01*
X143908603Y-61998498D01*
X143951468Y-62028512D01*
X144102170Y-62134035D01*
X144115552Y-62140275D01*
X144160300Y-62182003D01*
X144171975Y-62242064D01*
X144146117Y-62297517D01*
X144115554Y-62319724D01*
X144102173Y-62325963D01*
X143908603Y-62461501D01*
X143741501Y-62628603D01*
X143605963Y-62822173D01*
X143605959Y-62822181D01*
X143506098Y-63036332D01*
X143444935Y-63264599D01*
X143424341Y-63499995D01*
X143424341Y-63500004D01*
X143444935Y-63735400D01*
X143444936Y-63735407D01*
X143444937Y-63735408D01*
X143506097Y-63963663D01*
X143605965Y-64177830D01*
X143741505Y-64371401D01*
X143908599Y-64538495D01*
X143908602Y-64538497D01*
X143908603Y-64538498D01*
X143951468Y-64568512D01*
X144102170Y-64674035D01*
X144114707Y-64679881D01*
X144159455Y-64721609D01*
X144171130Y-64781671D01*
X144145272Y-64837124D01*
X144117036Y-64858207D01*
X143293184Y-65268899D01*
X143016738Y-65406708D01*
X142971817Y-65429101D01*
X142927649Y-65439500D01*
X134525942Y-65439500D01*
X134485018Y-65450465D01*
X134485017Y-65450464D01*
X134373219Y-65480421D01*
X134373218Y-65480421D01*
X134236281Y-65559482D01*
X134124479Y-65671283D01*
X134124480Y-65671284D01*
X134124478Y-65671286D01*
X127870190Y-71925573D01*
X127831605Y-71949451D01*
X126552065Y-72377671D01*
X126546271Y-72379415D01*
X126521341Y-72386095D01*
X126521336Y-72386097D01*
X126510799Y-72391010D01*
X126502062Y-72394587D01*
X126494122Y-72397403D01*
X126493453Y-72397654D01*
X126493437Y-72397660D01*
X126493428Y-72397664D01*
X126493417Y-72397668D01*
X126493417Y-72397669D01*
X126429081Y-72427069D01*
X126424548Y-72429757D01*
X126424502Y-72429679D01*
X126412555Y-72436822D01*
X126386949Y-72448762D01*
X126307171Y-72485965D01*
X126307168Y-72485966D01*
X126307166Y-72485968D01*
X126113603Y-72621501D01*
X125946501Y-72788603D01*
X125810963Y-72982173D01*
X125810959Y-72982181D01*
X125711098Y-73196332D01*
X125649935Y-73424599D01*
X125629341Y-73659995D01*
X125629341Y-73660004D01*
X125649935Y-73895400D01*
X125649936Y-73895407D01*
X125649937Y-73895408D01*
X125711097Y-74123663D01*
X125790194Y-74293286D01*
X125810964Y-74337828D01*
X125935387Y-74515524D01*
X125946505Y-74531401D01*
X126113599Y-74698495D01*
X126113602Y-74698497D01*
X126113603Y-74698498D01*
X126156468Y-74728512D01*
X126307170Y-74834035D01*
X126521337Y-74933903D01*
X126749592Y-74995063D01*
X126749596Y-74995063D01*
X126749599Y-74995064D01*
X126984996Y-75015659D01*
X126985000Y-75015659D01*
X126985004Y-75015659D01*
X127220400Y-74995064D01*
X127220401Y-74995063D01*
X127220408Y-74995063D01*
X127448663Y-74933903D01*
X127662830Y-74834035D01*
X127856401Y-74698495D01*
X128023495Y-74531401D01*
X128159035Y-74337830D01*
X128165275Y-74324447D01*
X128207003Y-74279700D01*
X128267064Y-74268025D01*
X128322517Y-74293883D01*
X128344725Y-74324448D01*
X128350964Y-74337828D01*
X128475387Y-74515524D01*
X128486505Y-74531401D01*
X128653599Y-74698495D01*
X128653602Y-74698497D01*
X128653603Y-74698498D01*
X128696468Y-74728512D01*
X128847170Y-74834035D01*
X129061337Y-74933903D01*
X129289592Y-74995063D01*
X129289596Y-74995063D01*
X129289599Y-74995064D01*
X129524996Y-75015659D01*
X129525000Y-75015659D01*
X129525004Y-75015659D01*
X129760400Y-74995064D01*
X129760401Y-74995063D01*
X129760408Y-74995063D01*
X129988663Y-74933903D01*
X130202830Y-74834035D01*
X130396401Y-74698495D01*
X130563495Y-74531401D01*
X130699035Y-74337830D01*
X130705275Y-74324448D01*
X130705551Y-74323857D01*
X130747279Y-74279108D01*
X130807340Y-74267433D01*
X130862793Y-74293290D01*
X130885001Y-74323856D01*
X130891399Y-74337577D01*
X131026886Y-74531073D01*
X131193926Y-74698113D01*
X131387422Y-74833600D01*
X131601509Y-74933430D01*
X131815000Y-74990634D01*
X131815000Y-74093012D01*
X131872007Y-74125925D01*
X131999174Y-74160000D01*
X132130826Y-74160000D01*
X132257993Y-74125925D01*
X132315000Y-74093012D01*
X132315000Y-74990634D01*
X132528490Y-74933430D01*
X132742577Y-74833600D01*
X132936073Y-74698113D01*
X133103113Y-74531073D01*
X133238599Y-74337579D01*
X133238600Y-74337577D01*
X133244996Y-74323860D01*
X133286722Y-74279109D01*
X133346783Y-74267431D01*
X133402237Y-74293286D01*
X133424447Y-74323853D01*
X133430963Y-74337827D01*
X133555387Y-74515524D01*
X133566505Y-74531401D01*
X133733599Y-74698495D01*
X133733602Y-74698497D01*
X133733603Y-74698498D01*
X133776468Y-74728512D01*
X133927170Y-74834035D01*
X134141337Y-74933903D01*
X134369592Y-74995063D01*
X134369596Y-74995063D01*
X134369599Y-74995064D01*
X134604996Y-75015659D01*
X134605000Y-75015659D01*
X134605004Y-75015659D01*
X134840400Y-74995064D01*
X134840401Y-74995063D01*
X134840408Y-74995063D01*
X135068663Y-74933903D01*
X135282830Y-74834035D01*
X135476401Y-74698495D01*
X135643495Y-74531401D01*
X135779035Y-74337830D01*
X135785275Y-74324447D01*
X135827003Y-74279700D01*
X135887064Y-74268025D01*
X135942517Y-74293883D01*
X135964725Y-74324448D01*
X135970964Y-74337828D01*
X136095387Y-74515524D01*
X136106505Y-74531401D01*
X136273599Y-74698495D01*
X136273602Y-74698497D01*
X136273603Y-74698498D01*
X136316468Y-74728512D01*
X136467170Y-74834035D01*
X136681337Y-74933903D01*
X136909592Y-74995063D01*
X136909596Y-74995063D01*
X136909599Y-74995064D01*
X137144996Y-75015659D01*
X137145000Y-75015659D01*
X137145004Y-75015659D01*
X137380400Y-74995064D01*
X137380401Y-74995063D01*
X137380408Y-74995063D01*
X137608663Y-74933903D01*
X137822830Y-74834035D01*
X138016401Y-74698495D01*
X138183495Y-74531401D01*
X138319035Y-74337830D01*
X138325275Y-74324447D01*
X138367003Y-74279700D01*
X138427064Y-74268025D01*
X138482517Y-74293883D01*
X138504725Y-74324448D01*
X138510964Y-74337828D01*
X138635387Y-74515524D01*
X138646505Y-74531401D01*
X138813599Y-74698495D01*
X138813602Y-74698497D01*
X138813603Y-74698498D01*
X138856468Y-74728512D01*
X139007170Y-74834035D01*
X139221337Y-74933903D01*
X139449592Y-74995063D01*
X139449596Y-74995063D01*
X139449599Y-74995064D01*
X139684996Y-75015659D01*
X139685000Y-75015659D01*
X139685004Y-75015659D01*
X139920400Y-74995064D01*
X139920401Y-74995063D01*
X139920408Y-74995063D01*
X140148663Y-74933903D01*
X140362830Y-74834035D01*
X140556401Y-74698495D01*
X140723495Y-74531401D01*
X140859035Y-74337830D01*
X140865275Y-74324448D01*
X140865551Y-74323857D01*
X140907279Y-74279108D01*
X140967340Y-74267433D01*
X141022793Y-74293290D01*
X141045001Y-74323856D01*
X141051399Y-74337577D01*
X141186886Y-74531073D01*
X141353926Y-74698113D01*
X141547422Y-74833600D01*
X141761509Y-74933430D01*
X141975000Y-74990634D01*
X141975000Y-74093012D01*
X142032007Y-74125925D01*
X142159174Y-74160000D01*
X142290826Y-74160000D01*
X142417993Y-74125925D01*
X142475000Y-74093012D01*
X142475000Y-74990634D01*
X142688490Y-74933430D01*
X142902577Y-74833600D01*
X143096074Y-74698112D01*
X143096077Y-74698109D01*
X143250885Y-74543302D01*
X143305402Y-74515524D01*
X143365834Y-74525095D01*
X143409099Y-74568360D01*
X143419322Y-74602722D01*
X143420908Y-74617481D01*
X143420909Y-74617485D01*
X143471202Y-74752329D01*
X143557450Y-74867541D01*
X143557454Y-74867546D01*
X143557457Y-74867548D01*
X143557458Y-74867549D01*
X143672670Y-74953797D01*
X143807511Y-75004089D01*
X143807512Y-75004089D01*
X143807517Y-75004091D01*
X143867127Y-75010500D01*
X145662872Y-75010499D01*
X145722483Y-75004091D01*
X145789907Y-74978943D01*
X145857329Y-74953797D01*
X145857329Y-74953796D01*
X145857331Y-74953796D01*
X145972546Y-74867546D01*
X146058796Y-74752331D01*
X146079020Y-74698109D01*
X146109089Y-74617488D01*
X146109090Y-74617485D01*
X146109091Y-74617483D01*
X146115500Y-74557873D01*
X146115499Y-72762128D01*
X146109091Y-72702517D01*
X146109089Y-72702511D01*
X146058797Y-72567670D01*
X145972549Y-72452458D01*
X145972548Y-72452457D01*
X145972546Y-72452454D01*
X145953234Y-72437997D01*
X145857329Y-72366202D01*
X145722488Y-72315910D01*
X145722483Y-72315909D01*
X145722481Y-72315908D01*
X145722477Y-72315908D01*
X145691249Y-72312550D01*
X145662873Y-72309500D01*
X145662870Y-72309500D01*
X143867133Y-72309500D01*
X143867129Y-72309500D01*
X143867128Y-72309501D01*
X143859949Y-72310272D01*
X143807519Y-72315908D01*
X143807514Y-72315909D01*
X143672670Y-72366202D01*
X143557458Y-72452450D01*
X143557450Y-72452458D01*
X143471202Y-72567670D01*
X143420910Y-72702511D01*
X143420908Y-72702522D01*
X143419322Y-72717277D01*
X143394302Y-72773113D01*
X143341241Y-72803580D01*
X143280406Y-72797039D01*
X143250885Y-72776698D01*
X143096073Y-72621886D01*
X142902577Y-72486399D01*
X142688489Y-72386569D01*
X142475000Y-72329364D01*
X142475000Y-73226988D01*
X142417993Y-73194075D01*
X142290826Y-73160000D01*
X142159174Y-73160000D01*
X142032007Y-73194075D01*
X141975000Y-73226988D01*
X141975000Y-72329364D01*
X141761505Y-72386570D01*
X141547432Y-72486394D01*
X141547424Y-72486398D01*
X141353926Y-72621886D01*
X141186886Y-72788926D01*
X141051398Y-72982424D01*
X141045000Y-72996146D01*
X141003271Y-73040893D01*
X140943209Y-73052567D01*
X140887757Y-73026708D01*
X140865552Y-72996145D01*
X140859038Y-72982177D01*
X140859036Y-72982173D01*
X140723498Y-72788603D01*
X140723497Y-72788602D01*
X140723495Y-72788599D01*
X140556401Y-72621505D01*
X140556397Y-72621502D01*
X140556396Y-72621501D01*
X140449007Y-72546307D01*
X140362830Y-72485965D01*
X140148663Y-72386097D01*
X139920408Y-72324937D01*
X139920407Y-72324936D01*
X139920400Y-72324935D01*
X139685004Y-72304341D01*
X139684996Y-72304341D01*
X139449599Y-72324935D01*
X139221332Y-72386098D01*
X139007181Y-72485959D01*
X139007173Y-72485963D01*
X138813603Y-72621501D01*
X138646501Y-72788603D01*
X138510963Y-72982173D01*
X138504724Y-72995554D01*
X138462995Y-73040301D01*
X138402933Y-73051975D01*
X138347481Y-73026116D01*
X138325276Y-72995554D01*
X138319036Y-72982173D01*
X138183498Y-72788603D01*
X138183497Y-72788602D01*
X138183495Y-72788599D01*
X138016401Y-72621505D01*
X138016397Y-72621502D01*
X138016396Y-72621501D01*
X137909007Y-72546307D01*
X137822830Y-72485965D01*
X137608663Y-72386097D01*
X137380408Y-72324937D01*
X137380407Y-72324936D01*
X137380400Y-72324935D01*
X137145004Y-72304341D01*
X137144996Y-72304341D01*
X136909599Y-72324935D01*
X136681332Y-72386098D01*
X136467181Y-72485959D01*
X136467173Y-72485963D01*
X136273603Y-72621501D01*
X136106501Y-72788603D01*
X135970963Y-72982173D01*
X135964724Y-72995554D01*
X135922995Y-73040301D01*
X135862933Y-73051975D01*
X135807481Y-73026116D01*
X135785276Y-72995554D01*
X135779036Y-72982173D01*
X135643498Y-72788603D01*
X135643497Y-72788602D01*
X135643495Y-72788599D01*
X135476401Y-72621505D01*
X135476397Y-72621502D01*
X135476396Y-72621501D01*
X135369007Y-72546307D01*
X135282830Y-72485965D01*
X135068663Y-72386097D01*
X134840408Y-72324937D01*
X134840407Y-72324936D01*
X134840400Y-72324935D01*
X134605004Y-72304341D01*
X134604996Y-72304341D01*
X134369599Y-72324935D01*
X134141332Y-72386098D01*
X133927181Y-72485959D01*
X133927173Y-72485963D01*
X133733603Y-72621501D01*
X133566501Y-72788603D01*
X133430963Y-72982173D01*
X133430962Y-72982176D01*
X133424445Y-72996150D01*
X133382714Y-73040895D01*
X133322652Y-73052566D01*
X133267201Y-73026705D01*
X133244997Y-72996141D01*
X133238601Y-72982425D01*
X133238601Y-72982424D01*
X133103113Y-72788926D01*
X132936073Y-72621886D01*
X132742577Y-72486399D01*
X132528489Y-72386569D01*
X132315000Y-72329364D01*
X132315000Y-73226988D01*
X132257993Y-73194075D01*
X132130826Y-73160000D01*
X131999174Y-73160000D01*
X131872007Y-73194075D01*
X131815000Y-73226988D01*
X131815000Y-72329364D01*
X131601505Y-72386570D01*
X131387432Y-72486394D01*
X131387424Y-72486398D01*
X131193926Y-72621886D01*
X131026886Y-72788926D01*
X130891398Y-72982424D01*
X130885000Y-72996146D01*
X130843271Y-73040893D01*
X130783209Y-73052567D01*
X130727757Y-73026708D01*
X130705552Y-72996145D01*
X130699038Y-72982177D01*
X130699036Y-72982173D01*
X130563498Y-72788603D01*
X130563497Y-72788602D01*
X130563495Y-72788599D01*
X130396401Y-72621505D01*
X130396397Y-72621502D01*
X130396396Y-72621501D01*
X130289007Y-72546307D01*
X130202830Y-72485965D01*
X129988663Y-72386097D01*
X129760408Y-72324937D01*
X129760407Y-72324936D01*
X129760400Y-72324935D01*
X129525004Y-72304341D01*
X129524996Y-72304341D01*
X129428729Y-72312763D01*
X129369112Y-72298999D01*
X129328971Y-72252822D01*
X129323638Y-72191870D01*
X129350095Y-72144138D01*
X134824739Y-66669496D01*
X134879256Y-66641719D01*
X134894743Y-66640500D01*
X142927651Y-66640500D01*
X142971818Y-66650898D01*
X143323759Y-66826341D01*
X144117610Y-67222077D01*
X144161253Y-67264959D01*
X144171356Y-67325305D01*
X144144058Y-67380063D01*
X144115285Y-67400401D01*
X144102425Y-67406397D01*
X144102424Y-67406398D01*
X143908926Y-67541886D01*
X143741886Y-67708926D01*
X143606398Y-67902424D01*
X143606394Y-67902432D01*
X143506570Y-68116505D01*
X143449364Y-68330000D01*
X144346988Y-68330000D01*
X144314075Y-68387007D01*
X144280000Y-68514174D01*
X144280000Y-68645826D01*
X144314075Y-68772993D01*
X144346988Y-68830000D01*
X143449364Y-68830000D01*
X143506569Y-69043489D01*
X143606399Y-69257577D01*
X143741886Y-69451073D01*
X143908926Y-69618113D01*
X144102422Y-69753600D01*
X144316509Y-69853430D01*
X144530000Y-69910634D01*
X144530000Y-69013012D01*
X144587007Y-69045925D01*
X144714174Y-69080000D01*
X144845826Y-69080000D01*
X144972993Y-69045925D01*
X145030000Y-69013012D01*
X145030000Y-69910633D01*
X145243490Y-69853430D01*
X145457577Y-69753600D01*
X145651073Y-69618113D01*
X145818113Y-69451073D01*
X145953600Y-69257577D01*
X146053430Y-69043489D01*
X146110636Y-68830000D01*
X145213012Y-68830000D01*
X145245925Y-68772993D01*
X145280000Y-68645826D01*
X145280000Y-68514174D01*
X145245925Y-68387007D01*
X145213012Y-68330000D01*
X146110636Y-68330000D01*
X146053429Y-68116505D01*
X145953605Y-67902432D01*
X145953601Y-67902424D01*
X145818113Y-67708926D01*
X145651073Y-67541886D01*
X145457577Y-67406399D01*
X145443856Y-67400001D01*
X145399108Y-67358273D01*
X145387433Y-67298212D01*
X145413291Y-67242759D01*
X145443857Y-67220551D01*
X145450053Y-67217661D01*
X145457830Y-67214035D01*
X145651401Y-67078495D01*
X145818495Y-66911401D01*
X145954035Y-66717830D01*
X146053903Y-66503663D01*
X146060590Y-66478700D01*
X146062330Y-66472920D01*
X146363146Y-65574075D01*
X146448819Y-65318081D01*
X146485217Y-65268899D01*
X146542701Y-65250500D01*
X148582639Y-65250500D01*
X148640830Y-65269407D01*
X148676794Y-65318907D01*
X148676794Y-65380093D01*
X148672363Y-65391339D01*
X148586098Y-65576332D01*
X148524935Y-65804599D01*
X148504341Y-66039995D01*
X148504341Y-66040004D01*
X148524935Y-66275400D01*
X148524936Y-66275407D01*
X148524937Y-66275408D01*
X148586097Y-66503663D01*
X148685965Y-66717830D01*
X148821505Y-66911401D01*
X148988599Y-67078495D01*
X148988602Y-67078497D01*
X148988603Y-67078498D01*
X149031468Y-67108512D01*
X149182170Y-67214035D01*
X149195552Y-67220275D01*
X149240300Y-67262003D01*
X149251975Y-67322064D01*
X149226117Y-67377517D01*
X149195554Y-67399724D01*
X149182173Y-67405963D01*
X148988603Y-67541501D01*
X148821501Y-67708603D01*
X148685963Y-67902173D01*
X148685959Y-67902181D01*
X148586098Y-68116332D01*
X148524935Y-68344599D01*
X148504341Y-68579995D01*
X148504341Y-68580004D01*
X148524935Y-68815400D01*
X148524936Y-68815407D01*
X148524937Y-68815408D01*
X148586097Y-69043663D01*
X148685965Y-69257830D01*
X148821505Y-69451401D01*
X148988599Y-69618495D01*
X148988602Y-69618497D01*
X148988603Y-69618498D01*
X149031468Y-69648512D01*
X149182170Y-69754035D01*
X149195552Y-69760275D01*
X149240300Y-69802003D01*
X149251975Y-69862064D01*
X149226117Y-69917517D01*
X149195554Y-69939724D01*
X149182173Y-69945963D01*
X148988603Y-70081501D01*
X148821501Y-70248603D01*
X148685963Y-70442173D01*
X148685959Y-70442181D01*
X148586098Y-70656332D01*
X148524935Y-70884599D01*
X148504341Y-71119995D01*
X148504341Y-71120004D01*
X148524935Y-71355400D01*
X148524936Y-71355407D01*
X148524937Y-71355408D01*
X148586097Y-71583663D01*
X148685965Y-71797830D01*
X148821505Y-71991401D01*
X148988599Y-72158495D01*
X148988602Y-72158497D01*
X148988603Y-72158498D01*
X149031468Y-72188512D01*
X149182170Y-72294035D01*
X149195552Y-72300275D01*
X149240300Y-72342003D01*
X149251975Y-72402064D01*
X149226117Y-72457517D01*
X149195554Y-72479724D01*
X149182173Y-72485963D01*
X148988603Y-72621501D01*
X148821501Y-72788603D01*
X148685963Y-72982173D01*
X148685959Y-72982181D01*
X148586098Y-73196332D01*
X148524935Y-73424599D01*
X148504341Y-73659995D01*
X148504341Y-73660004D01*
X148524935Y-73895400D01*
X148524936Y-73895407D01*
X148524937Y-73895408D01*
X148586097Y-74123663D01*
X148665194Y-74293286D01*
X148685964Y-74337828D01*
X148810387Y-74515524D01*
X148821505Y-74531401D01*
X148988599Y-74698495D01*
X148988602Y-74698497D01*
X148988603Y-74698498D01*
X149031468Y-74728512D01*
X149182170Y-74834035D01*
X149396337Y-74933903D01*
X149624592Y-74995063D01*
X149624596Y-74995063D01*
X149624599Y-74995064D01*
X149859996Y-75015659D01*
X149860000Y-75015659D01*
X149860004Y-75015659D01*
X150095400Y-74995064D01*
X150095401Y-74995063D01*
X150095408Y-74995063D01*
X150323663Y-74933903D01*
X150537830Y-74834035D01*
X150731401Y-74698495D01*
X150898495Y-74531401D01*
X151034035Y-74337830D01*
X151040275Y-74324448D01*
X151040551Y-74323857D01*
X151082279Y-74279108D01*
X151142340Y-74267433D01*
X151197793Y-74293290D01*
X151220001Y-74323856D01*
X151226399Y-74337577D01*
X151361886Y-74531073D01*
X151528926Y-74698113D01*
X151722422Y-74833600D01*
X151936509Y-74933430D01*
X152150000Y-74990634D01*
X152150000Y-74093012D01*
X152207007Y-74125925D01*
X152334174Y-74160000D01*
X152465826Y-74160000D01*
X152592993Y-74125925D01*
X152650000Y-74093012D01*
X152650000Y-74990634D01*
X152863490Y-74933430D01*
X153077577Y-74833600D01*
X153267716Y-74700464D01*
X153326228Y-74682575D01*
X153384080Y-74702495D01*
X153419174Y-74752615D01*
X153423500Y-74781560D01*
X153423500Y-75346500D01*
X153404593Y-75404691D01*
X153355093Y-75440655D01*
X153324500Y-75445500D01*
X125059500Y-75445500D01*
X125001309Y-75426593D01*
X124965345Y-75377093D01*
X124960500Y-75346500D01*
X124960500Y-49113500D01*
X124979407Y-49055309D01*
X125028907Y-49019345D01*
X125059500Y-49014500D01*
X153324500Y-49014500D01*
X153382691Y-49033407D01*
G37*
G04 #@! TD.AperFunction*
G04 #@! TA.AperFunction,Conductor*
G36*
X152650000Y-73226988D02*
G01*
X152592993Y-73194075D01*
X152465826Y-73160000D01*
X152334174Y-73160000D01*
X152207007Y-73194075D01*
X152150000Y-73226988D01*
X152150000Y-71553012D01*
X152207007Y-71585925D01*
X152334174Y-71620000D01*
X152465826Y-71620000D01*
X152592993Y-71585925D01*
X152650000Y-71553012D01*
X152650000Y-73226988D01*
G37*
G04 #@! TD.AperFunction*
G04 #@! TA.AperFunction,Conductor*
G36*
X152650000Y-70686988D02*
G01*
X152592993Y-70654075D01*
X152465826Y-70620000D01*
X152334174Y-70620000D01*
X152207007Y-70654075D01*
X152150000Y-70686988D01*
X152150000Y-69013012D01*
X152207007Y-69045925D01*
X152334174Y-69080000D01*
X152465826Y-69080000D01*
X152592993Y-69045925D01*
X152650000Y-69013012D01*
X152650000Y-70686988D01*
G37*
G04 #@! TD.AperFunction*
G04 #@! TA.AperFunction,Conductor*
G36*
X152650000Y-68146988D02*
G01*
X152592993Y-68114075D01*
X152465826Y-68080000D01*
X152334174Y-68080000D01*
X152207007Y-68114075D01*
X152150000Y-68146988D01*
X152150000Y-66473012D01*
X152207007Y-66505925D01*
X152334174Y-66540000D01*
X152465826Y-66540000D01*
X152592993Y-66505925D01*
X152650000Y-66473012D01*
X152650000Y-68146988D01*
G37*
G04 #@! TD.AperFunction*
G04 #@! TA.AperFunction,Conductor*
G36*
X152650000Y-65606988D02*
G01*
X152592993Y-65574075D01*
X152465826Y-65540000D01*
X152334174Y-65540000D01*
X152207007Y-65574075D01*
X152150000Y-65606988D01*
X152150000Y-63933012D01*
X152207007Y-63965925D01*
X152334174Y-64000000D01*
X152465826Y-64000000D01*
X152592993Y-63965925D01*
X152650000Y-63933012D01*
X152650000Y-65606988D01*
G37*
G04 #@! TD.AperFunction*
G04 #@! TA.AperFunction,Conductor*
G36*
X152650000Y-63066988D02*
G01*
X152592993Y-63034075D01*
X152465826Y-63000000D01*
X152334174Y-63000000D01*
X152207007Y-63034075D01*
X152150000Y-63066988D01*
X152150000Y-61393012D01*
X152207007Y-61425925D01*
X152334174Y-61460000D01*
X152465826Y-61460000D01*
X152592993Y-61425925D01*
X152650000Y-61393012D01*
X152650000Y-63066988D01*
G37*
G04 #@! TD.AperFunction*
G04 #@! TA.AperFunction,Conductor*
G36*
X152650000Y-60526988D02*
G01*
X152592993Y-60494075D01*
X152465826Y-60460000D01*
X152334174Y-60460000D01*
X152207007Y-60494075D01*
X152150000Y-60526988D01*
X152150000Y-58853012D01*
X152207007Y-58885925D01*
X152334174Y-58920000D01*
X152465826Y-58920000D01*
X152592993Y-58885925D01*
X152650000Y-58853012D01*
X152650000Y-60526988D01*
G37*
G04 #@! TD.AperFunction*
G04 #@! TA.AperFunction,Conductor*
G36*
X152650000Y-57986988D02*
G01*
X152592993Y-57954075D01*
X152465826Y-57920000D01*
X152334174Y-57920000D01*
X152207007Y-57954075D01*
X152150000Y-57986988D01*
X152150000Y-56313012D01*
X152207007Y-56345925D01*
X152334174Y-56380000D01*
X152465826Y-56380000D01*
X152592993Y-56345925D01*
X152650000Y-56313012D01*
X152650000Y-57986988D01*
G37*
G04 #@! TD.AperFunction*
G04 #@! TA.AperFunction,Conductor*
G36*
X149539193Y-57645544D02*
G01*
X149539527Y-57646275D01*
X149859134Y-58415511D01*
X149859143Y-58424466D01*
X149859134Y-58424489D01*
X149539527Y-59193724D01*
X149533188Y-59200049D01*
X149524233Y-59200040D01*
X149523502Y-59199706D01*
X148166480Y-58523230D01*
X148160605Y-58516472D01*
X148160000Y-58512759D01*
X148160000Y-58327240D01*
X148163427Y-58318967D01*
X148166476Y-58316771D01*
X149523503Y-57640292D01*
X149532435Y-57639669D01*
X149539193Y-57645544D01*
G37*
G04 #@! TD.AperFunction*
G04 #@! TA.AperFunction,Conductor*
G36*
X145115766Y-57639959D02*
G01*
X145116492Y-57640291D01*
X146473521Y-58316770D01*
X146479395Y-58323527D01*
X146480000Y-58327240D01*
X146480000Y-58512759D01*
X146476573Y-58521032D01*
X146473520Y-58523230D01*
X145116497Y-59199706D01*
X145107564Y-59200330D01*
X145100806Y-59194455D01*
X145100472Y-59193724D01*
X144780865Y-58424489D01*
X144780856Y-58415534D01*
X144780865Y-58415511D01*
X145100472Y-57646274D01*
X145106811Y-57639950D01*
X145115766Y-57639959D01*
G37*
G04 #@! TD.AperFunction*
G04 #@! TA.AperFunction,Conductor*
G36*
X145913437Y-64770129D02*
G01*
X145916490Y-64772327D01*
X146047672Y-64903509D01*
X146051099Y-64911782D01*
X146050494Y-64915495D01*
X145569275Y-66353396D01*
X145563400Y-66360154D01*
X145554467Y-66360778D01*
X145553714Y-66360497D01*
X144783785Y-66042562D01*
X144777447Y-66036238D01*
X144459502Y-65266284D01*
X144459511Y-65257330D01*
X144465850Y-65251005D01*
X144466581Y-65250731D01*
X145904506Y-64769505D01*
X145913437Y-64770129D01*
G37*
G04 #@! TD.AperFunction*
G04 #@! TA.AperFunction,Conductor*
G36*
X151626656Y-53019655D02*
G01*
X152395511Y-53337146D01*
X152401850Y-53343471D01*
X152401856Y-53343487D01*
X152720417Y-54113541D01*
X152720413Y-54122496D01*
X152714079Y-54128825D01*
X152713159Y-54129161D01*
X151351735Y-54563102D01*
X151348182Y-54563655D01*
X151165726Y-54563655D01*
X151157453Y-54560228D01*
X151154026Y-54551955D01*
X151154519Y-54548593D01*
X151610985Y-53027108D01*
X151616645Y-53020168D01*
X151625554Y-53019263D01*
X151626656Y-53019655D01*
G37*
G04 #@! TD.AperFunction*
G04 #@! TA.AperFunction,Conductor*
G36*
X152501032Y-51643427D02*
G01*
X152503230Y-51646480D01*
X153179706Y-53003502D01*
X153180330Y-53012435D01*
X153174455Y-53019193D01*
X153173724Y-53019527D01*
X152404489Y-53339134D01*
X152395534Y-53339143D01*
X152395511Y-53339134D01*
X151626275Y-53019527D01*
X151619950Y-53013188D01*
X151619959Y-53004233D01*
X151620285Y-53003518D01*
X152296770Y-51646480D01*
X152303528Y-51640605D01*
X152307241Y-51640000D01*
X152492759Y-51640000D01*
X152501032Y-51643427D01*
G37*
G04 #@! TD.AperFunction*
G04 #@! TA.AperFunction,Conductor*
G36*
X152408266Y-50807276D02*
G01*
X153242237Y-51642228D01*
X153245659Y-51650502D01*
X153242732Y-51658236D01*
X152503493Y-52496041D01*
X152495450Y-52499977D01*
X152494720Y-52500000D01*
X152305280Y-52500000D01*
X152297007Y-52496573D01*
X152296507Y-52496041D01*
X151557267Y-51658236D01*
X151554363Y-51649765D01*
X151557760Y-51642230D01*
X152391723Y-50807286D01*
X152399993Y-50803855D01*
X152408266Y-50807276D01*
G37*
G04 #@! TD.AperFunction*
G04 #@! TA.AperFunction,Conductor*
G36*
X144459193Y-65265544D02*
G01*
X144459527Y-65266275D01*
X144779134Y-66035511D01*
X144779143Y-66044466D01*
X144779134Y-66044489D01*
X144459527Y-66813724D01*
X144453188Y-66820049D01*
X144444233Y-66820040D01*
X144443502Y-66819706D01*
X143086480Y-66143230D01*
X143080605Y-66136472D01*
X143080000Y-66132759D01*
X143080000Y-65947240D01*
X143083427Y-65938967D01*
X143086476Y-65936771D01*
X144443503Y-65260292D01*
X144452435Y-65259669D01*
X144459193Y-65265544D01*
G37*
G04 #@! TD.AperFunction*
G04 #@! TA.AperFunction,Conductor*
G36*
X128118437Y-72390129D02*
G01*
X128121490Y-72392327D01*
X128252672Y-72523509D01*
X128256099Y-72531782D01*
X128255494Y-72535495D01*
X127774275Y-73973396D01*
X127768400Y-73980154D01*
X127759467Y-73980778D01*
X127758714Y-73980497D01*
X126988785Y-73662562D01*
X126982447Y-73656238D01*
X126664502Y-72886284D01*
X126664511Y-72877330D01*
X126670850Y-72871005D01*
X126671581Y-72870731D01*
X128109506Y-72389505D01*
X128118437Y-72390129D01*
G37*
G04 #@! TD.AperFunction*
M02*
