%TF.GenerationSoftware,KiCad,Pcbnew,8.0.4*%
%TF.CreationDate,2024-08-09T15:13:58+02:00*%
%TF.ProjectId,acorn-userport-microsd-adapter,61636f72-6e2d-4757-9365-72706f72742d,rev?*%
%TF.SameCoordinates,Original*%
%TF.FileFunction,Drillmap*%
%TF.FilePolarity,Positive*%
%FSLAX45Y45*%
G04 Gerber Fmt 4.5, Leading zero omitted, Abs format (unit mm)*
G04 Created by KiCad (PCBNEW 8.0.4) date 2024-08-09 15:13:58*
%MOMM*%
%LPD*%
G01*
G04 APERTURE LIST*
%ADD10C,0.050000*%
%ADD11C,0.200000*%
%ADD12C,0.100000*%
G04 APERTURE END LIST*
D10*
X15392400Y-4851400D02*
X12446000Y-4851400D01*
X12446000Y-4851400D02*
X12446000Y-7594600D01*
X15392400Y-7594600D02*
X12446000Y-7594600D01*
X15392400Y-7594600D02*
X15392400Y-4851400D01*
D11*
D12*
X12648500Y-7316000D02*
X12748500Y-7416000D01*
X12748500Y-7316000D02*
X12648500Y-7416000D01*
X12902500Y-7316000D02*
X13002500Y-7416000D01*
X13002500Y-7316000D02*
X12902500Y-7416000D01*
X13156500Y-7316000D02*
X13256500Y-7416000D01*
X13256500Y-7316000D02*
X13156500Y-7416000D01*
X13410500Y-7316000D02*
X13510500Y-7416000D01*
X13510500Y-7316000D02*
X13410500Y-7416000D01*
X13664500Y-7316000D02*
X13764500Y-7416000D01*
X13764500Y-7316000D02*
X13664500Y-7416000D01*
X13918500Y-7316000D02*
X14018500Y-7416000D01*
X14018500Y-7316000D02*
X13918500Y-7416000D01*
X14172500Y-7316000D02*
X14272500Y-7416000D01*
X14272500Y-7316000D02*
X14172500Y-7416000D01*
X14426500Y-7316000D02*
X14526500Y-7416000D01*
X14526500Y-7316000D02*
X14426500Y-7416000D01*
X14428000Y-5538000D02*
X14528000Y-5638000D01*
X14528000Y-5538000D02*
X14428000Y-5638000D01*
X14428000Y-5792000D02*
X14528000Y-5892000D01*
X14528000Y-5792000D02*
X14428000Y-5892000D01*
X14428000Y-6046000D02*
X14528000Y-6146000D01*
X14528000Y-6046000D02*
X14428000Y-6146000D01*
X14428000Y-6300000D02*
X14528000Y-6400000D01*
X14528000Y-6300000D02*
X14428000Y-6400000D01*
X14428000Y-6554000D02*
X14528000Y-6654000D01*
X14528000Y-6554000D02*
X14428000Y-6654000D01*
X14428000Y-6808000D02*
X14528000Y-6908000D01*
X14528000Y-6808000D02*
X14428000Y-6908000D01*
X14936000Y-5030000D02*
X15036000Y-5130000D01*
X15036000Y-5030000D02*
X14936000Y-5130000D01*
X14936000Y-5284000D02*
X15036000Y-5384000D01*
X15036000Y-5284000D02*
X14936000Y-5384000D01*
X14936000Y-5538000D02*
X15036000Y-5638000D01*
X15036000Y-5538000D02*
X14936000Y-5638000D01*
X14936000Y-5792000D02*
X15036000Y-5892000D01*
X15036000Y-5792000D02*
X14936000Y-5892000D01*
X14936000Y-6046000D02*
X15036000Y-6146000D01*
X15036000Y-6046000D02*
X14936000Y-6146000D01*
X14936000Y-6300000D02*
X15036000Y-6400000D01*
X15036000Y-6300000D02*
X14936000Y-6400000D01*
X14936000Y-6554000D02*
X15036000Y-6654000D01*
X15036000Y-6554000D02*
X14936000Y-6654000D01*
X14936000Y-6808000D02*
X15036000Y-6908000D01*
X15036000Y-6808000D02*
X14936000Y-6908000D01*
X14936000Y-7062000D02*
X15036000Y-7162000D01*
X15036000Y-7062000D02*
X14936000Y-7162000D01*
X14936000Y-7316000D02*
X15036000Y-7416000D01*
X15036000Y-7316000D02*
X14936000Y-7416000D01*
X15190000Y-5030000D02*
X15290000Y-5130000D01*
X15290000Y-5030000D02*
X15190000Y-5130000D01*
X15190000Y-5284000D02*
X15290000Y-5384000D01*
X15290000Y-5284000D02*
X15190000Y-5384000D01*
X15190000Y-5538000D02*
X15290000Y-5638000D01*
X15290000Y-5538000D02*
X15190000Y-5638000D01*
X15190000Y-5792000D02*
X15290000Y-5892000D01*
X15290000Y-5792000D02*
X15190000Y-5892000D01*
X15190000Y-6046000D02*
X15290000Y-6146000D01*
X15290000Y-6046000D02*
X15190000Y-6146000D01*
X15190000Y-6300000D02*
X15290000Y-6400000D01*
X15290000Y-6300000D02*
X15190000Y-6400000D01*
X15190000Y-6554000D02*
X15290000Y-6654000D01*
X15290000Y-6554000D02*
X15190000Y-6654000D01*
X15190000Y-6808000D02*
X15290000Y-6908000D01*
X15290000Y-6808000D02*
X15190000Y-6908000D01*
X15190000Y-7062000D02*
X15290000Y-7162000D01*
X15290000Y-7062000D02*
X15190000Y-7162000D01*
X15190000Y-7316000D02*
X15290000Y-7416000D01*
X15290000Y-7316000D02*
X15190000Y-7416000D01*
D11*
X12704277Y-7908584D02*
X12704277Y-7708584D01*
X12704277Y-7708584D02*
X12751896Y-7708584D01*
X12751896Y-7708584D02*
X12780467Y-7718108D01*
X12780467Y-7718108D02*
X12799515Y-7737155D01*
X12799515Y-7737155D02*
X12809039Y-7756203D01*
X12809039Y-7756203D02*
X12818562Y-7794298D01*
X12818562Y-7794298D02*
X12818562Y-7822869D01*
X12818562Y-7822869D02*
X12809039Y-7860965D01*
X12809039Y-7860965D02*
X12799515Y-7880012D01*
X12799515Y-7880012D02*
X12780467Y-7899060D01*
X12780467Y-7899060D02*
X12751896Y-7908584D01*
X12751896Y-7908584D02*
X12704277Y-7908584D01*
X12904277Y-7908584D02*
X12904277Y-7775250D01*
X12904277Y-7813346D02*
X12913801Y-7794298D01*
X12913801Y-7794298D02*
X12923324Y-7784774D01*
X12923324Y-7784774D02*
X12942372Y-7775250D01*
X12942372Y-7775250D02*
X12961420Y-7775250D01*
X13028086Y-7908584D02*
X13028086Y-7775250D01*
X13028086Y-7708584D02*
X13018562Y-7718108D01*
X13018562Y-7718108D02*
X13028086Y-7727631D01*
X13028086Y-7727631D02*
X13037610Y-7718108D01*
X13037610Y-7718108D02*
X13028086Y-7708584D01*
X13028086Y-7708584D02*
X13028086Y-7727631D01*
X13151896Y-7908584D02*
X13132848Y-7899060D01*
X13132848Y-7899060D02*
X13123324Y-7880012D01*
X13123324Y-7880012D02*
X13123324Y-7708584D01*
X13256658Y-7908584D02*
X13237610Y-7899060D01*
X13237610Y-7899060D02*
X13228086Y-7880012D01*
X13228086Y-7880012D02*
X13228086Y-7708584D01*
X13485229Y-7908584D02*
X13485229Y-7708584D01*
X13485229Y-7708584D02*
X13551896Y-7851441D01*
X13551896Y-7851441D02*
X13618562Y-7708584D01*
X13618562Y-7708584D02*
X13618562Y-7908584D01*
X13799515Y-7908584D02*
X13799515Y-7803822D01*
X13799515Y-7803822D02*
X13789991Y-7784774D01*
X13789991Y-7784774D02*
X13770943Y-7775250D01*
X13770943Y-7775250D02*
X13732848Y-7775250D01*
X13732848Y-7775250D02*
X13713801Y-7784774D01*
X13799515Y-7899060D02*
X13780467Y-7908584D01*
X13780467Y-7908584D02*
X13732848Y-7908584D01*
X13732848Y-7908584D02*
X13713801Y-7899060D01*
X13713801Y-7899060D02*
X13704277Y-7880012D01*
X13704277Y-7880012D02*
X13704277Y-7860965D01*
X13704277Y-7860965D02*
X13713801Y-7841917D01*
X13713801Y-7841917D02*
X13732848Y-7832393D01*
X13732848Y-7832393D02*
X13780467Y-7832393D01*
X13780467Y-7832393D02*
X13799515Y-7822869D01*
X13894753Y-7775250D02*
X13894753Y-7975250D01*
X13894753Y-7784774D02*
X13913801Y-7775250D01*
X13913801Y-7775250D02*
X13951896Y-7775250D01*
X13951896Y-7775250D02*
X13970943Y-7784774D01*
X13970943Y-7784774D02*
X13980467Y-7794298D01*
X13980467Y-7794298D02*
X13989991Y-7813346D01*
X13989991Y-7813346D02*
X13989991Y-7870488D01*
X13989991Y-7870488D02*
X13980467Y-7889536D01*
X13980467Y-7889536D02*
X13970943Y-7899060D01*
X13970943Y-7899060D02*
X13951896Y-7908584D01*
X13951896Y-7908584D02*
X13913801Y-7908584D01*
X13913801Y-7908584D02*
X13894753Y-7899060D01*
X14075705Y-7889536D02*
X14085229Y-7899060D01*
X14085229Y-7899060D02*
X14075705Y-7908584D01*
X14075705Y-7908584D02*
X14066182Y-7899060D01*
X14066182Y-7899060D02*
X14075705Y-7889536D01*
X14075705Y-7889536D02*
X14075705Y-7908584D01*
X14075705Y-7784774D02*
X14085229Y-7794298D01*
X14085229Y-7794298D02*
X14075705Y-7803822D01*
X14075705Y-7803822D02*
X14066182Y-7794298D01*
X14066182Y-7794298D02*
X14075705Y-7784774D01*
X14075705Y-7784774D02*
X14075705Y-7803822D01*
D12*
X12343500Y-8187100D02*
X12443500Y-8287100D01*
X12443500Y-8187100D02*
X12343500Y-8287100D01*
D11*
X12809039Y-8328584D02*
X12694753Y-8328584D01*
X12751896Y-8328584D02*
X12751896Y-8128584D01*
X12751896Y-8128584D02*
X12732848Y-8157155D01*
X12732848Y-8157155D02*
X12713801Y-8176203D01*
X12713801Y-8176203D02*
X12694753Y-8185727D01*
X12894753Y-8309536D02*
X12904277Y-8319060D01*
X12904277Y-8319060D02*
X12894753Y-8328584D01*
X12894753Y-8328584D02*
X12885229Y-8319060D01*
X12885229Y-8319060D02*
X12894753Y-8309536D01*
X12894753Y-8309536D02*
X12894753Y-8328584D01*
X13028086Y-8128584D02*
X13047134Y-8128584D01*
X13047134Y-8128584D02*
X13066182Y-8138108D01*
X13066182Y-8138108D02*
X13075705Y-8147631D01*
X13075705Y-8147631D02*
X13085229Y-8166679D01*
X13085229Y-8166679D02*
X13094753Y-8204774D01*
X13094753Y-8204774D02*
X13094753Y-8252393D01*
X13094753Y-8252393D02*
X13085229Y-8290488D01*
X13085229Y-8290488D02*
X13075705Y-8309536D01*
X13075705Y-8309536D02*
X13066182Y-8319060D01*
X13066182Y-8319060D02*
X13047134Y-8328584D01*
X13047134Y-8328584D02*
X13028086Y-8328584D01*
X13028086Y-8328584D02*
X13009039Y-8319060D01*
X13009039Y-8319060D02*
X12999515Y-8309536D01*
X12999515Y-8309536D02*
X12989991Y-8290488D01*
X12989991Y-8290488D02*
X12980467Y-8252393D01*
X12980467Y-8252393D02*
X12980467Y-8204774D01*
X12980467Y-8204774D02*
X12989991Y-8166679D01*
X12989991Y-8166679D02*
X12999515Y-8147631D01*
X12999515Y-8147631D02*
X13009039Y-8138108D01*
X13009039Y-8138108D02*
X13028086Y-8128584D01*
X13218562Y-8128584D02*
X13237610Y-8128584D01*
X13237610Y-8128584D02*
X13256658Y-8138108D01*
X13256658Y-8138108D02*
X13266182Y-8147631D01*
X13266182Y-8147631D02*
X13275705Y-8166679D01*
X13275705Y-8166679D02*
X13285229Y-8204774D01*
X13285229Y-8204774D02*
X13285229Y-8252393D01*
X13285229Y-8252393D02*
X13275705Y-8290488D01*
X13275705Y-8290488D02*
X13266182Y-8309536D01*
X13266182Y-8309536D02*
X13256658Y-8319060D01*
X13256658Y-8319060D02*
X13237610Y-8328584D01*
X13237610Y-8328584D02*
X13218562Y-8328584D01*
X13218562Y-8328584D02*
X13199515Y-8319060D01*
X13199515Y-8319060D02*
X13189991Y-8309536D01*
X13189991Y-8309536D02*
X13180467Y-8290488D01*
X13180467Y-8290488D02*
X13170943Y-8252393D01*
X13170943Y-8252393D02*
X13170943Y-8204774D01*
X13170943Y-8204774D02*
X13180467Y-8166679D01*
X13180467Y-8166679D02*
X13189991Y-8147631D01*
X13189991Y-8147631D02*
X13199515Y-8138108D01*
X13199515Y-8138108D02*
X13218562Y-8128584D01*
X13409039Y-8128584D02*
X13428086Y-8128584D01*
X13428086Y-8128584D02*
X13447134Y-8138108D01*
X13447134Y-8138108D02*
X13456658Y-8147631D01*
X13456658Y-8147631D02*
X13466182Y-8166679D01*
X13466182Y-8166679D02*
X13475705Y-8204774D01*
X13475705Y-8204774D02*
X13475705Y-8252393D01*
X13475705Y-8252393D02*
X13466182Y-8290488D01*
X13466182Y-8290488D02*
X13456658Y-8309536D01*
X13456658Y-8309536D02*
X13447134Y-8319060D01*
X13447134Y-8319060D02*
X13428086Y-8328584D01*
X13428086Y-8328584D02*
X13409039Y-8328584D01*
X13409039Y-8328584D02*
X13389991Y-8319060D01*
X13389991Y-8319060D02*
X13380467Y-8309536D01*
X13380467Y-8309536D02*
X13370943Y-8290488D01*
X13370943Y-8290488D02*
X13361420Y-8252393D01*
X13361420Y-8252393D02*
X13361420Y-8204774D01*
X13361420Y-8204774D02*
X13370943Y-8166679D01*
X13370943Y-8166679D02*
X13380467Y-8147631D01*
X13380467Y-8147631D02*
X13389991Y-8138108D01*
X13389991Y-8138108D02*
X13409039Y-8128584D01*
X13561420Y-8328584D02*
X13561420Y-8195250D01*
X13561420Y-8214298D02*
X13570943Y-8204774D01*
X13570943Y-8204774D02*
X13589991Y-8195250D01*
X13589991Y-8195250D02*
X13618563Y-8195250D01*
X13618563Y-8195250D02*
X13637610Y-8204774D01*
X13637610Y-8204774D02*
X13647134Y-8223822D01*
X13647134Y-8223822D02*
X13647134Y-8328584D01*
X13647134Y-8223822D02*
X13656658Y-8204774D01*
X13656658Y-8204774D02*
X13675705Y-8195250D01*
X13675705Y-8195250D02*
X13704277Y-8195250D01*
X13704277Y-8195250D02*
X13723324Y-8204774D01*
X13723324Y-8204774D02*
X13732848Y-8223822D01*
X13732848Y-8223822D02*
X13732848Y-8328584D01*
X13828086Y-8328584D02*
X13828086Y-8195250D01*
X13828086Y-8214298D02*
X13837610Y-8204774D01*
X13837610Y-8204774D02*
X13856658Y-8195250D01*
X13856658Y-8195250D02*
X13885229Y-8195250D01*
X13885229Y-8195250D02*
X13904277Y-8204774D01*
X13904277Y-8204774D02*
X13913801Y-8223822D01*
X13913801Y-8223822D02*
X13913801Y-8328584D01*
X13913801Y-8223822D02*
X13923324Y-8204774D01*
X13923324Y-8204774D02*
X13942372Y-8195250D01*
X13942372Y-8195250D02*
X13970943Y-8195250D01*
X13970943Y-8195250D02*
X13989991Y-8204774D01*
X13989991Y-8204774D02*
X13999515Y-8223822D01*
X13999515Y-8223822D02*
X13999515Y-8328584D01*
X14389991Y-8119060D02*
X14218563Y-8376203D01*
X14647134Y-8128584D02*
X14666182Y-8128584D01*
X14666182Y-8128584D02*
X14685229Y-8138108D01*
X14685229Y-8138108D02*
X14694753Y-8147631D01*
X14694753Y-8147631D02*
X14704277Y-8166679D01*
X14704277Y-8166679D02*
X14713801Y-8204774D01*
X14713801Y-8204774D02*
X14713801Y-8252393D01*
X14713801Y-8252393D02*
X14704277Y-8290488D01*
X14704277Y-8290488D02*
X14694753Y-8309536D01*
X14694753Y-8309536D02*
X14685229Y-8319060D01*
X14685229Y-8319060D02*
X14666182Y-8328584D01*
X14666182Y-8328584D02*
X14647134Y-8328584D01*
X14647134Y-8328584D02*
X14628086Y-8319060D01*
X14628086Y-8319060D02*
X14618563Y-8309536D01*
X14618563Y-8309536D02*
X14609039Y-8290488D01*
X14609039Y-8290488D02*
X14599515Y-8252393D01*
X14599515Y-8252393D02*
X14599515Y-8204774D01*
X14599515Y-8204774D02*
X14609039Y-8166679D01*
X14609039Y-8166679D02*
X14618563Y-8147631D01*
X14618563Y-8147631D02*
X14628086Y-8138108D01*
X14628086Y-8138108D02*
X14647134Y-8128584D01*
X14799515Y-8309536D02*
X14809039Y-8319060D01*
X14809039Y-8319060D02*
X14799515Y-8328584D01*
X14799515Y-8328584D02*
X14789991Y-8319060D01*
X14789991Y-8319060D02*
X14799515Y-8309536D01*
X14799515Y-8309536D02*
X14799515Y-8328584D01*
X14932848Y-8128584D02*
X14951896Y-8128584D01*
X14951896Y-8128584D02*
X14970944Y-8138108D01*
X14970944Y-8138108D02*
X14980467Y-8147631D01*
X14980467Y-8147631D02*
X14989991Y-8166679D01*
X14989991Y-8166679D02*
X14999515Y-8204774D01*
X14999515Y-8204774D02*
X14999515Y-8252393D01*
X14999515Y-8252393D02*
X14989991Y-8290488D01*
X14989991Y-8290488D02*
X14980467Y-8309536D01*
X14980467Y-8309536D02*
X14970944Y-8319060D01*
X14970944Y-8319060D02*
X14951896Y-8328584D01*
X14951896Y-8328584D02*
X14932848Y-8328584D01*
X14932848Y-8328584D02*
X14913801Y-8319060D01*
X14913801Y-8319060D02*
X14904277Y-8309536D01*
X14904277Y-8309536D02*
X14894753Y-8290488D01*
X14894753Y-8290488D02*
X14885229Y-8252393D01*
X14885229Y-8252393D02*
X14885229Y-8204774D01*
X14885229Y-8204774D02*
X14894753Y-8166679D01*
X14894753Y-8166679D02*
X14904277Y-8147631D01*
X14904277Y-8147631D02*
X14913801Y-8138108D01*
X14913801Y-8138108D02*
X14932848Y-8128584D01*
X15066182Y-8128584D02*
X15189991Y-8128584D01*
X15189991Y-8128584D02*
X15123325Y-8204774D01*
X15123325Y-8204774D02*
X15151896Y-8204774D01*
X15151896Y-8204774D02*
X15170944Y-8214298D01*
X15170944Y-8214298D02*
X15180467Y-8223822D01*
X15180467Y-8223822D02*
X15189991Y-8242869D01*
X15189991Y-8242869D02*
X15189991Y-8290488D01*
X15189991Y-8290488D02*
X15180467Y-8309536D01*
X15180467Y-8309536D02*
X15170944Y-8319060D01*
X15170944Y-8319060D02*
X15151896Y-8328584D01*
X15151896Y-8328584D02*
X15094753Y-8328584D01*
X15094753Y-8328584D02*
X15075706Y-8319060D01*
X15075706Y-8319060D02*
X15066182Y-8309536D01*
X15285229Y-8328584D02*
X15323325Y-8328584D01*
X15323325Y-8328584D02*
X15342372Y-8319060D01*
X15342372Y-8319060D02*
X15351896Y-8309536D01*
X15351896Y-8309536D02*
X15370944Y-8280965D01*
X15370944Y-8280965D02*
X15380467Y-8242869D01*
X15380467Y-8242869D02*
X15380467Y-8166679D01*
X15380467Y-8166679D02*
X15370944Y-8147631D01*
X15370944Y-8147631D02*
X15361420Y-8138108D01*
X15361420Y-8138108D02*
X15342372Y-8128584D01*
X15342372Y-8128584D02*
X15304277Y-8128584D01*
X15304277Y-8128584D02*
X15285229Y-8138108D01*
X15285229Y-8138108D02*
X15275706Y-8147631D01*
X15275706Y-8147631D02*
X15266182Y-8166679D01*
X15266182Y-8166679D02*
X15266182Y-8214298D01*
X15266182Y-8214298D02*
X15275706Y-8233346D01*
X15275706Y-8233346D02*
X15285229Y-8242869D01*
X15285229Y-8242869D02*
X15304277Y-8252393D01*
X15304277Y-8252393D02*
X15342372Y-8252393D01*
X15342372Y-8252393D02*
X15361420Y-8242869D01*
X15361420Y-8242869D02*
X15370944Y-8233346D01*
X15370944Y-8233346D02*
X15380467Y-8214298D01*
X15551896Y-8195250D02*
X15551896Y-8328584D01*
X15504277Y-8119060D02*
X15456658Y-8261917D01*
X15456658Y-8261917D02*
X15580467Y-8261917D01*
X15647134Y-8128584D02*
X15647134Y-8166679D01*
X15723325Y-8128584D02*
X15723325Y-8166679D01*
X16018563Y-8404774D02*
X16009039Y-8395250D01*
X16009039Y-8395250D02*
X15989991Y-8366679D01*
X15989991Y-8366679D02*
X15980468Y-8347631D01*
X15980468Y-8347631D02*
X15970944Y-8319060D01*
X15970944Y-8319060D02*
X15961420Y-8271441D01*
X15961420Y-8271441D02*
X15961420Y-8233346D01*
X15961420Y-8233346D02*
X15970944Y-8185727D01*
X15970944Y-8185727D02*
X15980468Y-8157155D01*
X15980468Y-8157155D02*
X15989991Y-8138108D01*
X15989991Y-8138108D02*
X16009039Y-8109536D01*
X16009039Y-8109536D02*
X16018563Y-8100012D01*
X16075706Y-8128584D02*
X16199515Y-8128584D01*
X16199515Y-8128584D02*
X16132848Y-8204774D01*
X16132848Y-8204774D02*
X16161420Y-8204774D01*
X16161420Y-8204774D02*
X16180468Y-8214298D01*
X16180468Y-8214298D02*
X16189991Y-8223822D01*
X16189991Y-8223822D02*
X16199515Y-8242869D01*
X16199515Y-8242869D02*
X16199515Y-8290488D01*
X16199515Y-8290488D02*
X16189991Y-8309536D01*
X16189991Y-8309536D02*
X16180468Y-8319060D01*
X16180468Y-8319060D02*
X16161420Y-8328584D01*
X16161420Y-8328584D02*
X16104277Y-8328584D01*
X16104277Y-8328584D02*
X16085229Y-8319060D01*
X16085229Y-8319060D02*
X16075706Y-8309536D01*
X16370944Y-8195250D02*
X16370944Y-8328584D01*
X16323325Y-8119060D02*
X16275706Y-8261917D01*
X16275706Y-8261917D02*
X16399515Y-8261917D01*
X16628087Y-8328584D02*
X16628087Y-8128584D01*
X16713801Y-8328584D02*
X16713801Y-8223822D01*
X16713801Y-8223822D02*
X16704277Y-8204774D01*
X16704277Y-8204774D02*
X16685230Y-8195250D01*
X16685230Y-8195250D02*
X16656658Y-8195250D01*
X16656658Y-8195250D02*
X16637610Y-8204774D01*
X16637610Y-8204774D02*
X16628087Y-8214298D01*
X16837611Y-8328584D02*
X16818563Y-8319060D01*
X16818563Y-8319060D02*
X16809039Y-8309536D01*
X16809039Y-8309536D02*
X16799515Y-8290488D01*
X16799515Y-8290488D02*
X16799515Y-8233346D01*
X16799515Y-8233346D02*
X16809039Y-8214298D01*
X16809039Y-8214298D02*
X16818563Y-8204774D01*
X16818563Y-8204774D02*
X16837611Y-8195250D01*
X16837611Y-8195250D02*
X16866182Y-8195250D01*
X16866182Y-8195250D02*
X16885230Y-8204774D01*
X16885230Y-8204774D02*
X16894753Y-8214298D01*
X16894753Y-8214298D02*
X16904277Y-8233346D01*
X16904277Y-8233346D02*
X16904277Y-8290488D01*
X16904277Y-8290488D02*
X16894753Y-8309536D01*
X16894753Y-8309536D02*
X16885230Y-8319060D01*
X16885230Y-8319060D02*
X16866182Y-8328584D01*
X16866182Y-8328584D02*
X16837611Y-8328584D01*
X17018563Y-8328584D02*
X16999515Y-8319060D01*
X16999515Y-8319060D02*
X16989992Y-8300012D01*
X16989992Y-8300012D02*
X16989992Y-8128584D01*
X17170944Y-8319060D02*
X17151896Y-8328584D01*
X17151896Y-8328584D02*
X17113801Y-8328584D01*
X17113801Y-8328584D02*
X17094753Y-8319060D01*
X17094753Y-8319060D02*
X17085230Y-8300012D01*
X17085230Y-8300012D02*
X17085230Y-8223822D01*
X17085230Y-8223822D02*
X17094753Y-8204774D01*
X17094753Y-8204774D02*
X17113801Y-8195250D01*
X17113801Y-8195250D02*
X17151896Y-8195250D01*
X17151896Y-8195250D02*
X17170944Y-8204774D01*
X17170944Y-8204774D02*
X17180468Y-8223822D01*
X17180468Y-8223822D02*
X17180468Y-8242869D01*
X17180468Y-8242869D02*
X17085230Y-8261917D01*
X17256658Y-8319060D02*
X17275706Y-8328584D01*
X17275706Y-8328584D02*
X17313801Y-8328584D01*
X17313801Y-8328584D02*
X17332849Y-8319060D01*
X17332849Y-8319060D02*
X17342373Y-8300012D01*
X17342373Y-8300012D02*
X17342373Y-8290488D01*
X17342373Y-8290488D02*
X17332849Y-8271441D01*
X17332849Y-8271441D02*
X17313801Y-8261917D01*
X17313801Y-8261917D02*
X17285230Y-8261917D01*
X17285230Y-8261917D02*
X17266182Y-8252393D01*
X17266182Y-8252393D02*
X17256658Y-8233346D01*
X17256658Y-8233346D02*
X17256658Y-8223822D01*
X17256658Y-8223822D02*
X17266182Y-8204774D01*
X17266182Y-8204774D02*
X17285230Y-8195250D01*
X17285230Y-8195250D02*
X17313801Y-8195250D01*
X17313801Y-8195250D02*
X17332849Y-8204774D01*
X17409039Y-8404774D02*
X17418563Y-8395250D01*
X17418563Y-8395250D02*
X17437611Y-8366679D01*
X17437611Y-8366679D02*
X17447134Y-8347631D01*
X17447134Y-8347631D02*
X17456658Y-8319060D01*
X17456658Y-8319060D02*
X17466182Y-8271441D01*
X17466182Y-8271441D02*
X17466182Y-8233346D01*
X17466182Y-8233346D02*
X17456658Y-8185727D01*
X17456658Y-8185727D02*
X17447134Y-8157155D01*
X17447134Y-8157155D02*
X17437611Y-8138108D01*
X17437611Y-8138108D02*
X17418563Y-8109536D01*
X17418563Y-8109536D02*
X17409039Y-8100012D01*
M02*
