G04 #@! TF.GenerationSoftware,KiCad,Pcbnew,8.0.4*
G04 #@! TF.CreationDate,2024-08-09T15:13:23+02:00*
G04 #@! TF.ProjectId,acorn-userport-microsd-adapter,61636f72-6e2d-4757-9365-72706f72742d,rev?*
G04 #@! TF.SameCoordinates,Original*
G04 #@! TF.FileFunction,Copper,L1,Top*
G04 #@! TF.FilePolarity,Positive*
%FSLAX46Y46*%
G04 Gerber Fmt 4.6, Leading zero omitted, Abs format (unit mm)*
G04 Created by KiCad (PCBNEW 8.0.4) date 2024-08-09 15:13:23*
%MOMM*%
%LPD*%
G01*
G04 APERTURE LIST*
G04 #@! TA.AperFunction,ComponentPad*
%ADD10R,1.700000X1.700000*%
G04 #@! TD*
G04 #@! TA.AperFunction,ComponentPad*
%ADD11O,1.700000X1.700000*%
G04 #@! TD*
G04 #@! TA.AperFunction,Conductor*
%ADD12C,0.200000*%
G04 #@! TD*
G04 APERTURE END LIST*
D10*
X152400000Y-50800000D03*
D11*
X149860000Y-50800000D03*
X152400000Y-53340000D03*
X149860000Y-53340000D03*
X152400000Y-55880000D03*
X149860000Y-55880000D03*
X152400000Y-58420000D03*
X149860000Y-58420000D03*
X152400000Y-60960000D03*
X149860000Y-60960000D03*
X152400000Y-63500000D03*
X149860000Y-63500000D03*
X152400000Y-66040000D03*
X149860000Y-66040000D03*
X152400000Y-68580000D03*
X149860000Y-68580000D03*
X152400000Y-71120000D03*
X149860000Y-71120000D03*
X152400000Y-73660000D03*
X149860000Y-73660000D03*
D10*
X144780000Y-55880000D03*
D11*
X144780000Y-58420000D03*
X144780000Y-60960000D03*
X144780000Y-63500000D03*
X144780000Y-66040000D03*
X144780000Y-68580000D03*
D10*
X144765000Y-73660000D03*
D11*
X142225000Y-73660000D03*
X139685000Y-73660000D03*
X137145000Y-73660000D03*
X134605000Y-73660000D03*
X132065000Y-73660000D03*
X129525000Y-73660000D03*
X126985000Y-73660000D03*
D12*
X134605000Y-68595000D02*
X144780000Y-58420000D01*
X134605000Y-73660000D02*
X134605000Y-68595000D01*
X137145000Y-71135000D02*
X137145000Y-73660000D01*
X144780000Y-63500000D02*
X137145000Y-71135000D01*
X143630000Y-60483654D02*
X143630000Y-62350000D01*
X144543654Y-59570000D02*
X143630000Y-60483654D01*
X145256346Y-59570000D02*
X144543654Y-59570000D01*
X145930000Y-57835685D02*
X145930000Y-58896346D01*
X143630000Y-62350000D02*
X144780000Y-63500000D01*
X149860000Y-53905685D02*
X145930000Y-57835685D01*
X149860000Y-53340000D02*
X149860000Y-53905685D01*
X145930000Y-58896346D02*
X145256346Y-59570000D01*
X149860000Y-55880000D02*
X144780000Y-60960000D01*
X143615000Y-69730000D02*
X139685000Y-73660000D01*
X145256346Y-69730000D02*
X143615000Y-69730000D01*
X145930000Y-69056346D02*
X145256346Y-69730000D01*
X145930000Y-62110000D02*
X145930000Y-69056346D01*
X144780000Y-60960000D02*
X145930000Y-62110000D01*
X151010000Y-57270000D02*
X149860000Y-58420000D01*
X151010000Y-51950000D02*
X151010000Y-57270000D01*
X149860000Y-50800000D02*
X151010000Y-51950000D01*
G04 #@! TA.AperFunction,Conductor*
G36*
X144006282Y-58099501D02*
G01*
X144776215Y-58417438D01*
X144782552Y-58423761D01*
X144782562Y-58423785D01*
X145100497Y-59193714D01*
X145100488Y-59202669D01*
X145094149Y-59208994D01*
X145093396Y-59209275D01*
X144915251Y-59268895D01*
X144911538Y-59269500D01*
X144504089Y-59269500D01*
X144427666Y-59289977D01*
X144427662Y-59289979D01*
X144359146Y-59329537D01*
X144359141Y-59329541D01*
X144172513Y-59516168D01*
X144167953Y-59518990D01*
X143655495Y-59690494D01*
X143646562Y-59689870D01*
X143643509Y-59687672D01*
X143512327Y-59556490D01*
X143508900Y-59548217D01*
X143509503Y-59544510D01*
X143990725Y-58106601D01*
X143996599Y-58099845D01*
X144005532Y-58099221D01*
X144006282Y-58099501D01*
G37*
G04 #@! TD.AperFunction*
G04 #@! TA.AperFunction,Conductor*
G36*
X134706032Y-71963427D02*
G01*
X134708230Y-71966480D01*
X135384706Y-73323502D01*
X135385330Y-73332435D01*
X135379455Y-73339193D01*
X135378724Y-73339527D01*
X134609489Y-73659134D01*
X134600534Y-73659143D01*
X134600511Y-73659134D01*
X133831275Y-73339527D01*
X133824950Y-73333188D01*
X133824959Y-73324233D01*
X133825285Y-73323518D01*
X134501770Y-71966480D01*
X134508528Y-71960605D01*
X134512241Y-71960000D01*
X134697759Y-71960000D01*
X134706032Y-71963427D01*
G37*
G04 #@! TD.AperFunction*
G04 #@! TA.AperFunction,Conductor*
G36*
X137246032Y-71963427D02*
G01*
X137248230Y-71966480D01*
X137924706Y-73323502D01*
X137925330Y-73332435D01*
X137919455Y-73339193D01*
X137918724Y-73339527D01*
X137149489Y-73659134D01*
X137140534Y-73659143D01*
X137140511Y-73659134D01*
X136371275Y-73339527D01*
X136364950Y-73333188D01*
X136364959Y-73324233D01*
X136365285Y-73323518D01*
X137041770Y-71966480D01*
X137048528Y-71960605D01*
X137052241Y-71960000D01*
X137237759Y-71960000D01*
X137246032Y-71963427D01*
G37*
G04 #@! TD.AperFunction*
G04 #@! TA.AperFunction,Conductor*
G36*
X144006282Y-63179501D02*
G01*
X144776215Y-63497438D01*
X144782552Y-63503761D01*
X144782562Y-63503785D01*
X145100497Y-64273714D01*
X145100488Y-64282669D01*
X145094149Y-64288994D01*
X145093396Y-64289275D01*
X143655495Y-64770494D01*
X143646562Y-64769870D01*
X143643509Y-64767672D01*
X143512327Y-64636490D01*
X143508900Y-64628217D01*
X143509503Y-64624510D01*
X143990725Y-63186601D01*
X143996599Y-63179845D01*
X144005532Y-63179221D01*
X144006282Y-63179501D01*
G37*
G04 #@! TD.AperFunction*
G04 #@! TA.AperFunction,Conductor*
G36*
X143731734Y-62276897D02*
G01*
X145093159Y-62710838D01*
X145100001Y-62716615D01*
X145100753Y-62725538D01*
X145100417Y-62726458D01*
X144781856Y-63496512D01*
X144775527Y-63502846D01*
X144775511Y-63502853D01*
X144006658Y-63820343D01*
X143997703Y-63820334D01*
X143991378Y-63813995D01*
X143990985Y-63812891D01*
X143534519Y-62291407D01*
X143535424Y-62282498D01*
X143542364Y-62276838D01*
X143545726Y-62276345D01*
X143728182Y-62276345D01*
X143731734Y-62276897D01*
G37*
G04 #@! TD.AperFunction*
G04 #@! TA.AperFunction,Conductor*
G36*
X149861148Y-53342719D02*
G01*
X149863696Y-53346533D01*
X150181520Y-54116191D01*
X150181511Y-54125146D01*
X150176948Y-54130553D01*
X149100431Y-54809593D01*
X149091605Y-54811108D01*
X149085916Y-54807970D01*
X148954748Y-54676802D01*
X148951321Y-54668529D01*
X148951332Y-54668013D01*
X149009506Y-53351173D01*
X149013295Y-53343060D01*
X149021183Y-53339990D01*
X149852873Y-53339299D01*
X149861148Y-53342719D01*
G37*
G04 #@! TD.AperFunction*
G04 #@! TA.AperFunction,Conductor*
G36*
X149086282Y-55559501D02*
G01*
X149856215Y-55877438D01*
X149862552Y-55883761D01*
X149862562Y-55883785D01*
X150180497Y-56653714D01*
X150180488Y-56662669D01*
X150174149Y-56668994D01*
X150173396Y-56669275D01*
X148735495Y-57150494D01*
X148726562Y-57149870D01*
X148723509Y-57147672D01*
X148592327Y-57016490D01*
X148588900Y-57008217D01*
X148589503Y-57004510D01*
X149070725Y-55566601D01*
X149076599Y-55559845D01*
X149085532Y-55559221D01*
X149086282Y-55559501D01*
G37*
G04 #@! TD.AperFunction*
G04 #@! TA.AperFunction,Conductor*
G36*
X145913437Y-59690129D02*
G01*
X145916490Y-59692327D01*
X146047672Y-59823509D01*
X146051099Y-59831782D01*
X146050494Y-59835495D01*
X145569275Y-61273396D01*
X145563400Y-61280154D01*
X145554467Y-61280778D01*
X145553714Y-61280497D01*
X144783785Y-60962562D01*
X144777447Y-60956238D01*
X144459502Y-60186284D01*
X144459511Y-60177330D01*
X144465850Y-60171005D01*
X144466581Y-60170731D01*
X145904506Y-59689505D01*
X145913437Y-59690129D01*
G37*
G04 #@! TD.AperFunction*
G04 #@! TA.AperFunction,Conductor*
G36*
X140818437Y-72390129D02*
G01*
X140821490Y-72392327D01*
X140952672Y-72523509D01*
X140956099Y-72531782D01*
X140955494Y-72535495D01*
X140474275Y-73973396D01*
X140468400Y-73980154D01*
X140459467Y-73980778D01*
X140458714Y-73980497D01*
X139688785Y-73662562D01*
X139682447Y-73656238D01*
X139364502Y-72886284D01*
X139364511Y-72877330D01*
X139370850Y-72871005D01*
X139371581Y-72870731D01*
X140809506Y-72389505D01*
X140818437Y-72390129D01*
G37*
G04 #@! TD.AperFunction*
G04 #@! TA.AperFunction,Conductor*
G36*
X145562296Y-60639665D02*
G01*
X145568621Y-60646004D01*
X145569014Y-60647108D01*
X146025481Y-62168593D01*
X146024576Y-62177502D01*
X146017636Y-62183162D01*
X146014274Y-62183655D01*
X145831818Y-62183655D01*
X145828265Y-62183102D01*
X144466840Y-61749161D01*
X144459998Y-61743384D01*
X144459246Y-61734461D01*
X144459576Y-61733555D01*
X144778144Y-60963485D01*
X144784471Y-60957153D01*
X145553342Y-60639656D01*
X145562296Y-60639665D01*
G37*
G04 #@! TD.AperFunction*
G04 #@! TA.AperFunction,Conductor*
G36*
X151102547Y-57199772D02*
G01*
X151105974Y-57208045D01*
X151105481Y-57211407D01*
X150649014Y-58732891D01*
X150643354Y-58739831D01*
X150634445Y-58740736D01*
X150633341Y-58740343D01*
X149864488Y-58422853D01*
X149858150Y-58416529D01*
X149539582Y-57646457D01*
X149539586Y-57637503D01*
X149545920Y-57631174D01*
X149546828Y-57630842D01*
X150908265Y-57196897D01*
X150911818Y-57196345D01*
X151094274Y-57196345D01*
X151102547Y-57199772D01*
G37*
G04 #@! TD.AperFunction*
G04 #@! TA.AperFunction,Conductor*
G36*
X150642296Y-50479665D02*
G01*
X150648621Y-50486004D01*
X150649014Y-50487108D01*
X151105481Y-52008593D01*
X151104576Y-52017502D01*
X151097636Y-52023162D01*
X151094274Y-52023655D01*
X150911818Y-52023655D01*
X150908265Y-52023102D01*
X149546840Y-51589161D01*
X149539998Y-51583384D01*
X149539246Y-51574461D01*
X149539576Y-51573555D01*
X149858144Y-50803485D01*
X149864471Y-50797153D01*
X150633342Y-50479656D01*
X150642296Y-50479665D01*
G37*
G04 #@! TD.AperFunction*
M02*
